<svg width="176" height="43" viewBox="0 0 176 43" fill="none" xmlns="http://www.w3.org/2000/svg">
<g filter="url(#filter0_i)">
<path d="M28.188 33.68C28.188 36.488 27.252 38.5853 25.38 39.972C24.4787 40.6307 23.5427 41.1507 22.572 41.532C21.636 41.8787 20.7173 42.052 19.816 42.052H8.48C7.57867 42.052 6.64267 41.8787 5.672 41.532C4.736 41.1507 3.81733 40.6307 2.916 39.972C2.01467 39.2787 1.32133 38.4293 0.836 37.424C0.350667 36.384 0.108 35.136 0.108 33.68V8.98C0.108 7.59333 0.350667 6.38 0.836 5.34C1.32133 4.26533 2.01467 3.39866 2.916 2.74H2.864C3.76533 2.15067 4.70133 1.66533 5.672 1.284C6.64267 0.902665 7.57867 0.711998 8.48 0.711998H19.816C20.7173 0.711998 21.6533 0.902665 22.624 1.284C23.5947 1.66533 24.5307 2.15067 25.432 2.74H25.38C26.2813 3.39866 26.9747 4.26533 27.46 5.34C27.9453 6.38 28.188 7.59333 28.188 8.98V12.568C28.188 14.232 27.148 15.064 25.068 15.064C23.0227 15.064 22 14.232 22 12.568V9.448C22 8.58133 21.74 7.784 21.22 7.056C20.7 6.328 19.7987 5.964 18.516 5.964H9.78C8.49733 5.964 7.596 6.328 7.076 7.056C6.556 7.784 6.296 8.58133 6.296 9.448V33.264C6.296 34.1653 6.556 34.98 7.076 35.708C7.596 36.436 8.49733 36.8 9.78 36.8H18.516C19.7987 36.8 20.7 36.436 21.22 35.708C21.74 34.98 22 34.1653 22 33.264V30.248C22 28.6187 23.0227 27.804 25.068 27.804C27.148 27.804 28.188 28.6187 28.188 30.248V33.68ZM60.4509 33.732C60.4509 35.1187 60.2082 36.3493 59.7229 37.424C59.2375 38.4987 58.5442 39.3653 57.6429 40.024H57.6949C56.8282 40.6133 55.9095 41.0987 54.9389 41.48C53.9682 41.8267 53.0322 42 52.1309 42H43.7589C42.8922 42 41.9562 41.8267 40.9509 41.48C39.9802 41.0987 39.0615 40.6133 38.1949 40.024H38.2469C37.3455 39.3653 36.6522 38.4987 36.1669 37.424C35.6815 36.3493 35.4389 35.1187 35.4389 33.732V12.88C35.4389 11.216 36.3922 10.384 38.2989 10.384C40.2055 10.384 41.1589 11.216 41.1589 12.88V33.316C41.1589 34.2867 41.4015 35.136 41.8869 35.864C42.3375 36.696 43.2735 37.112 44.6949 37.112H51.1949C52.5815 37.112 53.5002 36.696 53.9509 35.864L53.8989 35.916C54.4535 35.084 54.7309 34.2173 54.7309 33.316V12.88C54.7309 11.216 55.6842 10.384 57.5909 10.384C59.4975 10.384 60.4509 11.216 60.4509 12.88V33.732ZM73.102 39.972C73.102 41.6013 72.1487 42.416 70.242 42.416C68.3007 42.416 67.33 41.6013 67.33 39.972V2.688C67.33 1.05866 68.3007 0.243998 70.242 0.243998C72.1487 0.243998 73.102 1.05866 73.102 2.688V39.972ZM87.2876 15.584V34.512C87.2876 35.4133 87.4783 36.1067 87.8596 36.592C88.2409 37.0773 89.0556 37.32 90.3036 37.32H91.6556C93.0076 37.32 93.6489 38.1173 93.5796 39.712C93.5796 41.3413 92.9383 42.156 91.6556 42.156H89.9396C88.8303 42.156 87.7903 42.0173 86.8196 41.74C85.8489 41.428 84.9129 40.9947 84.0116 40.44V40.492C82.3129 39.3827 81.4636 37.4067 81.4636 34.564V15.584H79.4356C78.1876 15.584 77.5289 14.7693 77.4596 13.14C77.4596 11.5107 78.1183 10.696 79.4356 10.696H81.4636V5.132C81.4636 3.468 82.4516 2.636 84.4276 2.636C86.3343 2.636 87.2876 3.468 87.2876 5.132V10.696H91.6036C92.9556 10.696 93.5969 11.5107 93.5276 13.14C93.5276 14.7693 92.8863 15.584 91.6036 15.584H87.2876ZM123.309 33.732C123.309 35.1187 123.066 36.3493 122.581 37.424C122.095 38.4987 121.402 39.3653 120.501 40.024H120.553C119.686 40.6133 118.767 41.0987 117.797 41.48C116.826 41.8267 115.89 42 114.989 42H106.617C105.75 42 104.814 41.8267 103.809 41.48C102.838 41.0987 101.919 40.6133 101.053 40.024H101.105C100.203 39.3653 99.51 38.4987 99.0247 37.424C98.5394 36.3493 98.2967 35.1187 98.2967 33.732V12.88C98.2967 11.216 99.25 10.384 101.157 10.384C103.063 10.384 104.017 11.216 104.017 12.88V33.316C104.017 34.2867 104.259 35.136 104.745 35.864C105.195 36.696 106.131 37.112 107.553 37.112H114.053C115.439 37.112 116.358 36.696 116.809 35.864L116.757 35.916C117.311 35.084 117.589 34.2173 117.589 33.316V12.88C117.589 11.216 118.542 10.384 120.449 10.384C122.355 10.384 123.309 11.216 123.309 12.88V33.732ZM135.648 39.816C135.648 41.48 134.695 42.312 132.788 42.312C130.812 42.312 129.824 41.48 129.824 39.816V18.288C129.824 15.4453 130.673 13.4693 132.372 12.36C134.071 11.2507 136.029 10.696 138.248 10.696H144.176C145.459 10.696 146.1 11.5107 146.1 13.14C146.169 14.7693 145.528 15.584 144.176 15.584H138.664C137.416 15.584 136.601 15.8267 136.22 16.312C135.839 16.7973 135.648 17.4733 135.648 18.34V39.816ZM156.417 33.68C156.417 34.512 156.677 35.292 157.197 36.02C157.751 36.748 158.67 37.112 159.953 37.112H166.453C167.735 37.112 168.637 36.8 169.157 36.176C169.711 35.5173 169.989 34.772 169.989 33.94V33.368C169.989 31.7387 170.942 30.924 172.849 30.924C174.755 30.924 175.709 31.7387 175.709 33.368V33.992C175.709 35.448 175.466 36.644 174.981 37.58C174.53 38.516 173.837 39.3307 172.901 40.024C171.063 41.3413 169.226 42 167.389 42H158.653C156.815 42 155.03 41.3413 153.297 40.024C152.465 39.3307 151.823 38.464 151.373 37.424C150.922 36.3493 150.697 35.1187 150.697 33.732V18.912C150.697 16.104 151.563 14.024 153.297 12.672C154.163 12.048 155.047 11.5627 155.949 11.216C156.885 10.8347 157.786 10.644 158.653 10.644H167.389C168.221 10.644 169.139 10.8173 170.145 11.164C171.15 11.476 172.086 11.9093 172.953 12.464C173.785 13.0533 174.443 13.868 174.929 14.908C175.449 15.948 175.709 17.1787 175.709 18.6V25.62C175.709 26.4173 175.466 27.128 174.981 27.752C174.53 28.376 173.681 28.688 172.433 28.688H161.201C159.953 28.688 159.294 27.8733 159.225 26.244C159.225 24.6147 159.883 23.8 161.201 23.8H170.041L169.989 18.964C169.989 18.0973 169.711 17.3173 169.157 16.624C168.637 15.896 167.735 15.532 166.453 15.532H159.953C158.67 15.532 157.751 15.896 157.197 16.624C156.677 17.3173 156.417 18.0973 156.417 18.964V33.68Z" fill="#EB864D"/>
<path d="M28.188 33.68C28.188 36.488 27.252 38.5853 25.38 39.972C24.4787 40.6307 23.5427 41.1507 22.572 41.532C21.636 41.8787 20.7173 42.052 19.816 42.052H8.48C7.57867 42.052 6.64267 41.8787 5.672 41.532C4.736 41.1507 3.81733 40.6307 2.916 39.972C2.01467 39.2787 1.32133 38.4293 0.836 37.424C0.350667 36.384 0.108 35.136 0.108 33.68V8.98C0.108 7.59333 0.350667 6.38 0.836 5.34C1.32133 4.26533 2.01467 3.39866 2.916 2.74H2.864C3.76533 2.15067 4.70133 1.66533 5.672 1.284C6.64267 0.902665 7.57867 0.711998 8.48 0.711998H19.816C20.7173 0.711998 21.6533 0.902665 22.624 1.284C23.5947 1.66533 24.5307 2.15067 25.432 2.74H25.38C26.2813 3.39866 26.9747 4.26533 27.46 5.34C27.9453 6.38 28.188 7.59333 28.188 8.98V12.568C28.188 14.232 27.148 15.064 25.068 15.064C23.0227 15.064 22 14.232 22 12.568V9.448C22 8.58133 21.74 7.784 21.22 7.056C20.7 6.328 19.7987 5.964 18.516 5.964H9.78C8.49733 5.964 7.596 6.328 7.076 7.056C6.556 7.784 6.296 8.58133 6.296 9.448V33.264C6.296 34.1653 6.556 34.98 7.076 35.708C7.596 36.436 8.49733 36.8 9.78 36.8H18.516C19.7987 36.8 20.7 36.436 21.22 35.708C21.74 34.98 22 34.1653 22 33.264V30.248C22 28.6187 23.0227 27.804 25.068 27.804C27.148 27.804 28.188 28.6187 28.188 30.248V33.68ZM60.4509 33.732C60.4509 35.1187 60.2082 36.3493 59.7229 37.424C59.2375 38.4987 58.5442 39.3653 57.6429 40.024H57.6949C56.8282 40.6133 55.9095 41.0987 54.9389 41.48C53.9682 41.8267 53.0322 42 52.1309 42H43.7589C42.8922 42 41.9562 41.8267 40.9509 41.48C39.9802 41.0987 39.0615 40.6133 38.1949 40.024H38.2469C37.3455 39.3653 36.6522 38.4987 36.1669 37.424C35.6815 36.3493 35.4389 35.1187 35.4389 33.732V12.88C35.4389 11.216 36.3922 10.384 38.2989 10.384C40.2055 10.384 41.1589 11.216 41.1589 12.88V33.316C41.1589 34.2867 41.4015 35.136 41.8869 35.864C42.3375 36.696 43.2735 37.112 44.6949 37.112H51.1949C52.5815 37.112 53.5002 36.696 53.9509 35.864L53.8989 35.916C54.4535 35.084 54.7309 34.2173 54.7309 33.316V12.88C54.7309 11.216 55.6842 10.384 57.5909 10.384C59.4975 10.384 60.4509 11.216 60.4509 12.88V33.732ZM73.102 39.972C73.102 41.6013 72.1487 42.416 70.242 42.416C68.3007 42.416 67.33 41.6013 67.33 39.972V2.688C67.33 1.05866 68.3007 0.243998 70.242 0.243998C72.1487 0.243998 73.102 1.05866 73.102 2.688V39.972ZM87.2876 15.584V34.512C87.2876 35.4133 87.4783 36.1067 87.8596 36.592C88.2409 37.0773 89.0556 37.32 90.3036 37.32H91.6556C93.0076 37.32 93.6489 38.1173 93.5796 39.712C93.5796 41.3413 92.9383 42.156 91.6556 42.156H89.9396C88.8303 42.156 87.7903 42.0173 86.8196 41.74C85.8489 41.428 84.9129 40.9947 84.0116 40.44V40.492C82.3129 39.3827 81.4636 37.4067 81.4636 34.564V15.584H79.4356C78.1876 15.584 77.5289 14.7693 77.4596 13.14C77.4596 11.5107 78.1183 10.696 79.4356 10.696H81.4636V5.132C81.4636 3.468 82.4516 2.636 84.4276 2.636C86.3343 2.636 87.2876 3.468 87.2876 5.132V10.696H91.6036C92.9556 10.696 93.5969 11.5107 93.5276 13.14C93.5276 14.7693 92.8863 15.584 91.6036 15.584H87.2876ZM123.309 33.732C123.309 35.1187 123.066 36.3493 122.581 37.424C122.095 38.4987 121.402 39.3653 120.501 40.024H120.553C119.686 40.6133 118.767 41.0987 117.797 41.48C116.826 41.8267 115.89 42 114.989 42H106.617C105.75 42 104.814 41.8267 103.809 41.48C102.838 41.0987 101.919 40.6133 101.053 40.024H101.105C100.203 39.3653 99.51 38.4987 99.0247 37.424C98.5394 36.3493 98.2967 35.1187 98.2967 33.732V12.88C98.2967 11.216 99.25 10.384 101.157 10.384C103.063 10.384 104.017 11.216 104.017 12.88V33.316C104.017 34.2867 104.259 35.136 104.745 35.864C105.195 36.696 106.131 37.112 107.553 37.112H114.053C115.439 37.112 116.358 36.696 116.809 35.864L116.757 35.916C117.311 35.084 117.589 34.2173 117.589 33.316V12.88C117.589 11.216 118.542 10.384 120.449 10.384C122.355 10.384 123.309 11.216 123.309 12.88V33.732ZM135.648 39.816C135.648 41.48 134.695 42.312 132.788 42.312C130.812 42.312 129.824 41.48 129.824 39.816V18.288C129.824 15.4453 130.673 13.4693 132.372 12.36C134.071 11.2507 136.029 10.696 138.248 10.696H144.176C145.459 10.696 146.1 11.5107 146.1 13.14C146.169 14.7693 145.528 15.584 144.176 15.584H138.664C137.416 15.584 136.601 15.8267 136.22 16.312C135.839 16.7973 135.648 17.4733 135.648 18.34V39.816ZM156.417 33.68C156.417 34.512 156.677 35.292 157.197 36.02C157.751 36.748 158.67 37.112 159.953 37.112H166.453C167.735 37.112 168.637 36.8 169.157 36.176C169.711 35.5173 169.989 34.772 169.989 33.94V33.368C169.989 31.7387 170.942 30.924 172.849 30.924C174.755 30.924 175.709 31.7387 175.709 33.368V33.992C175.709 35.448 175.466 36.644 174.981 37.58C174.53 38.516 173.837 39.3307 172.901 40.024C171.063 41.3413 169.226 42 167.389 42H158.653C156.815 42 155.03 41.3413 153.297 40.024C152.465 39.3307 151.823 38.464 151.373 37.424C150.922 36.3493 150.697 35.1187 150.697 33.732V18.912C150.697 16.104 151.563 14.024 153.297 12.672C154.163 12.048 155.047 11.5627 155.949 11.216C156.885 10.8347 157.786 10.644 158.653 10.644H167.389C168.221 10.644 169.139 10.8173 170.145 11.164C171.15 11.476 172.086 11.9093 172.953 12.464C173.785 13.0533 174.443 13.868 174.929 14.908C175.449 15.948 175.709 17.1787 175.709 18.6V25.62C175.709 26.4173 175.466 27.128 174.981 27.752C174.53 28.376 173.681 28.688 172.433 28.688H161.201C159.953 28.688 159.294 27.8733 159.225 26.244C159.225 24.6147 159.883 23.8 161.201 23.8H170.041L169.989 18.964C169.989 18.0973 169.711 17.3173 169.157 16.624C168.637 15.896 167.735 15.532 166.453 15.532H159.953C158.67 15.532 157.751 15.896 157.197 16.624C156.677 17.3173 156.417 18.0973 156.417 18.964V33.68Z" fill="url(#paint0_linear)"/>
</g>
<defs>
<filter id="filter0_i" x="0.108002" y="0.243988" width="175.601" height="46.172" filterUnits="userSpaceOnUse" color-interpolation-filters="sRGB">
<feFlood flood-opacity="0" result="BackgroundImageFix"/>
<feBlend mode="normal" in="SourceGraphic" in2="BackgroundImageFix" result="shape"/>
<feColorMatrix in="SourceAlpha" type="matrix" values="0 0 0 0 0 0 0 0 0 0 0 0 0 0 0 0 0 0 127 0" result="hardAlpha"/>
<feOffset dy="4"/>
<feGaussianBlur stdDeviation="2"/>
<feComposite in2="hardAlpha" operator="arithmetic" k2="-1" k3="1"/>
<feColorMatrix type="matrix" values="0 0 0 0 0 0 0 0 0 0 0 0 0 0 0 0 0 0 0.25 0"/>
<feBlend mode="normal" in2="shape" result="effect1_innerShadow"/>
</filter>
<linearGradient id="paint0_linear" x1="87.5" y1="15" x2="123.033" y2="50.5874" gradientUnits="userSpaceOnUse">
<stop stop-color="#00596C"/>
<stop offset="0.125" stop-color="#EB864D"/>
</linearGradient>
</defs>
</svg>
