<svg width="256" height="142" viewBox="0 0 256 142" fill="none" xmlns="http://www.w3.org/2000/svg">
<g filter="url(#filter0_i)">
<path d="M105.188 98.68C105.188 101.488 104.252 103.585 102.38 104.972C101.479 105.631 100.543 106.151 99.572 106.532C98.636 106.879 97.7173 107.052 96.816 107.052H85.48C84.5787 107.052 83.6427 106.879 82.672 106.532C81.736 106.151 80.8173 105.631 79.916 104.972C79.0147 104.279 78.3213 103.429 77.836 102.424C77.3507 101.384 77.108 100.136 77.108 98.68V73.98C77.108 72.5933 77.3507 71.38 77.836 70.34C78.3213 69.2653 79.0147 68.3987 79.916 67.74H79.864C80.7653 67.1507 81.7013 66.6653 82.672 66.284C83.6427 65.9027 84.5787 65.712 85.48 65.712H96.816C97.7173 65.712 98.6533 65.9027 99.624 66.284C100.595 66.6653 101.531 67.1507 102.432 67.74H102.38C103.281 68.3987 103.975 69.2653 104.46 70.34C104.945 71.38 105.188 72.5933 105.188 73.98V77.568C105.188 79.232 104.148 80.064 102.068 80.064C100.023 80.064 99 79.232 99 77.568V74.448C99 73.5813 98.74 72.784 98.22 72.056C97.7 71.328 96.7987 70.964 95.516 70.964H86.78C85.4973 70.964 84.596 71.328 84.076 72.056C83.556 72.784 83.296 73.5813 83.296 74.448V98.264C83.296 99.1653 83.556 99.98 84.076 100.708C84.596 101.436 85.4973 101.8 86.78 101.8H95.516C96.7987 101.8 97.7 101.436 98.22 100.708C98.74 99.98 99 99.1653 99 98.264V95.248C99 93.6187 100.023 92.804 102.068 92.804C104.148 92.804 105.188 93.6187 105.188 95.248V98.68ZM137.451 98.732C137.451 100.119 137.208 101.349 136.723 102.424C136.238 103.499 135.544 104.365 134.643 105.024H134.695C133.828 105.613 132.91 106.099 131.939 106.48C130.968 106.827 130.032 107 129.131 107H120.759C119.892 107 118.956 106.827 117.951 106.48C116.98 106.099 116.062 105.613 115.195 105.024H115.247C114.346 104.365 113.652 103.499 113.167 102.424C112.682 101.349 112.439 100.119 112.439 98.732V77.88C112.439 76.216 113.392 75.384 115.299 75.384C117.206 75.384 118.159 76.216 118.159 77.88V98.316C118.159 99.2867 118.402 100.136 118.887 100.864C119.338 101.696 120.274 102.112 121.695 102.112H128.195C129.582 102.112 130.5 101.696 130.951 100.864L130.899 100.916C131.454 100.084 131.731 99.2173 131.731 98.316V77.88C131.731 76.216 132.684 75.384 134.591 75.384C136.498 75.384 137.451 76.216 137.451 77.88V98.732ZM150.102 104.972C150.102 106.601 149.149 107.416 147.242 107.416C145.301 107.416 144.33 106.601 144.33 104.972V67.688C144.33 66.0587 145.301 65.244 147.242 65.244C149.149 65.244 150.102 66.0587 150.102 67.688V104.972ZM164.288 80.584V99.512C164.288 100.413 164.478 101.107 164.86 101.592C165.241 102.077 166.056 102.32 167.304 102.32H168.656C170.008 102.32 170.649 103.117 170.58 104.712C170.58 106.341 169.938 107.156 168.656 107.156H166.94C165.83 107.156 164.79 107.017 163.82 106.74C162.849 106.428 161.913 105.995 161.012 105.44V105.492C159.313 104.383 158.464 102.407 158.464 99.564V80.584H156.436C155.188 80.584 154.529 79.7693 154.46 78.14C154.46 76.5107 155.118 75.696 156.436 75.696H158.464V70.132C158.464 68.468 159.452 67.636 161.428 67.636C163.334 67.636 164.288 68.468 164.288 70.132V75.696H168.604C169.956 75.696 170.597 76.5107 170.528 78.14C170.528 79.7693 169.886 80.584 168.604 80.584H164.288ZM200.309 98.732C200.309 100.119 200.066 101.349 199.581 102.424C199.095 103.499 198.402 104.365 197.501 105.024H197.553C196.686 105.613 195.767 106.099 194.797 106.48C193.826 106.827 192.89 107 191.989 107H183.617C182.75 107 181.814 106.827 180.809 106.48C179.838 106.099 178.919 105.613 178.053 105.024H178.105C177.203 104.365 176.51 103.499 176.025 102.424C175.539 101.349 175.297 100.119 175.297 98.732V77.88C175.297 76.216 176.25 75.384 178.157 75.384C180.063 75.384 181.017 76.216 181.017 77.88V98.316C181.017 99.2867 181.259 100.136 181.745 100.864C182.195 101.696 183.131 102.112 184.553 102.112H191.053C192.439 102.112 193.358 101.696 193.809 100.864L193.757 100.916C194.311 100.084 194.589 99.2173 194.589 98.316V77.88C194.589 76.216 195.542 75.384 197.449 75.384C199.355 75.384 200.309 76.216 200.309 77.88V98.732ZM212.648 104.816C212.648 106.48 211.695 107.312 209.788 107.312C207.812 107.312 206.824 106.48 206.824 104.816V83.288C206.824 80.4453 207.673 78.4693 209.372 77.36C211.071 76.2507 213.029 75.696 215.248 75.696H221.176C222.459 75.696 223.1 76.5107 223.1 78.14C223.169 79.7693 222.528 80.584 221.176 80.584H215.664C214.416 80.584 213.601 80.8267 213.22 81.312C212.839 81.7973 212.648 82.4733 212.648 83.34V104.816ZM233.417 98.68C233.417 99.512 233.677 100.292 234.197 101.02C234.751 101.748 235.67 102.112 236.953 102.112H243.453C244.735 102.112 245.637 101.8 246.157 101.176C246.711 100.517 246.989 99.772 246.989 98.94V98.368C246.989 96.7387 247.942 95.924 249.849 95.924C251.755 95.924 252.709 96.7387 252.709 98.368V98.992C252.709 100.448 252.466 101.644 251.981 102.58C251.53 103.516 250.837 104.331 249.901 105.024C248.063 106.341 246.226 107 244.389 107H235.653C233.815 107 232.03 106.341 230.297 105.024C229.465 104.331 228.823 103.464 228.373 102.424C227.922 101.349 227.697 100.119 227.697 98.732V83.912C227.697 81.104 228.563 79.024 230.297 77.672C231.163 77.048 232.047 76.5627 232.949 76.216C233.885 75.8347 234.786 75.644 235.653 75.644H244.389C245.221 75.644 246.139 75.8173 247.145 76.164C248.15 76.476 249.086 76.9093 249.953 77.464C250.785 78.0533 251.443 78.868 251.929 79.908C252.449 80.948 252.709 82.1787 252.709 83.6V90.62C252.709 91.4173 252.466 92.128 251.981 92.752C251.53 93.376 250.681 93.688 249.433 93.688H238.201C236.953 93.688 236.294 92.8733 236.225 91.244C236.225 89.6147 236.883 88.8 238.201 88.8H247.041L246.989 83.964C246.989 83.0973 246.711 82.3173 246.157 81.624C245.637 80.896 244.735 80.532 243.453 80.532H236.953C235.67 80.532 234.751 80.896 234.197 81.624C233.677 82.3173 233.417 83.0973 233.417 83.964V98.68Z" fill="#EB864D"/>
<path d="M105.188 98.68C105.188 101.488 104.252 103.585 102.38 104.972C101.479 105.631 100.543 106.151 99.572 106.532C98.636 106.879 97.7173 107.052 96.816 107.052H85.48C84.5787 107.052 83.6427 106.879 82.672 106.532C81.736 106.151 80.8173 105.631 79.916 104.972C79.0147 104.279 78.3213 103.429 77.836 102.424C77.3507 101.384 77.108 100.136 77.108 98.68V73.98C77.108 72.5933 77.3507 71.38 77.836 70.34C78.3213 69.2653 79.0147 68.3987 79.916 67.74H79.864C80.7653 67.1507 81.7013 66.6653 82.672 66.284C83.6427 65.9027 84.5787 65.712 85.48 65.712H96.816C97.7173 65.712 98.6533 65.9027 99.624 66.284C100.595 66.6653 101.531 67.1507 102.432 67.74H102.38C103.281 68.3987 103.975 69.2653 104.46 70.34C104.945 71.38 105.188 72.5933 105.188 73.98V77.568C105.188 79.232 104.148 80.064 102.068 80.064C100.023 80.064 99 79.232 99 77.568V74.448C99 73.5813 98.74 72.784 98.22 72.056C97.7 71.328 96.7987 70.964 95.516 70.964H86.78C85.4973 70.964 84.596 71.328 84.076 72.056C83.556 72.784 83.296 73.5813 83.296 74.448V98.264C83.296 99.1653 83.556 99.98 84.076 100.708C84.596 101.436 85.4973 101.8 86.78 101.8H95.516C96.7987 101.8 97.7 101.436 98.22 100.708C98.74 99.98 99 99.1653 99 98.264V95.248C99 93.6187 100.023 92.804 102.068 92.804C104.148 92.804 105.188 93.6187 105.188 95.248V98.68ZM137.451 98.732C137.451 100.119 137.208 101.349 136.723 102.424C136.238 103.499 135.544 104.365 134.643 105.024H134.695C133.828 105.613 132.91 106.099 131.939 106.48C130.968 106.827 130.032 107 129.131 107H120.759C119.892 107 118.956 106.827 117.951 106.48C116.98 106.099 116.062 105.613 115.195 105.024H115.247C114.346 104.365 113.652 103.499 113.167 102.424C112.682 101.349 112.439 100.119 112.439 98.732V77.88C112.439 76.216 113.392 75.384 115.299 75.384C117.206 75.384 118.159 76.216 118.159 77.88V98.316C118.159 99.2867 118.402 100.136 118.887 100.864C119.338 101.696 120.274 102.112 121.695 102.112H128.195C129.582 102.112 130.5 101.696 130.951 100.864L130.899 100.916C131.454 100.084 131.731 99.2173 131.731 98.316V77.88C131.731 76.216 132.684 75.384 134.591 75.384C136.498 75.384 137.451 76.216 137.451 77.88V98.732ZM150.102 104.972C150.102 106.601 149.149 107.416 147.242 107.416C145.301 107.416 144.33 106.601 144.33 104.972V67.688C144.33 66.0587 145.301 65.244 147.242 65.244C149.149 65.244 150.102 66.0587 150.102 67.688V104.972ZM164.288 80.584V99.512C164.288 100.413 164.478 101.107 164.86 101.592C165.241 102.077 166.056 102.32 167.304 102.32H168.656C170.008 102.32 170.649 103.117 170.58 104.712C170.58 106.341 169.938 107.156 168.656 107.156H166.94C165.83 107.156 164.79 107.017 163.82 106.74C162.849 106.428 161.913 105.995 161.012 105.44V105.492C159.313 104.383 158.464 102.407 158.464 99.564V80.584H156.436C155.188 80.584 154.529 79.7693 154.46 78.14C154.46 76.5107 155.118 75.696 156.436 75.696H158.464V70.132C158.464 68.468 159.452 67.636 161.428 67.636C163.334 67.636 164.288 68.468 164.288 70.132V75.696H168.604C169.956 75.696 170.597 76.5107 170.528 78.14C170.528 79.7693 169.886 80.584 168.604 80.584H164.288ZM200.309 98.732C200.309 100.119 200.066 101.349 199.581 102.424C199.095 103.499 198.402 104.365 197.501 105.024H197.553C196.686 105.613 195.767 106.099 194.797 106.48C193.826 106.827 192.89 107 191.989 107H183.617C182.75 107 181.814 106.827 180.809 106.48C179.838 106.099 178.919 105.613 178.053 105.024H178.105C177.203 104.365 176.51 103.499 176.025 102.424C175.539 101.349 175.297 100.119 175.297 98.732V77.88C175.297 76.216 176.25 75.384 178.157 75.384C180.063 75.384 181.017 76.216 181.017 77.88V98.316C181.017 99.2867 181.259 100.136 181.745 100.864C182.195 101.696 183.131 102.112 184.553 102.112H191.053C192.439 102.112 193.358 101.696 193.809 100.864L193.757 100.916C194.311 100.084 194.589 99.2173 194.589 98.316V77.88C194.589 76.216 195.542 75.384 197.449 75.384C199.355 75.384 200.309 76.216 200.309 77.88V98.732ZM212.648 104.816C212.648 106.48 211.695 107.312 209.788 107.312C207.812 107.312 206.824 106.48 206.824 104.816V83.288C206.824 80.4453 207.673 78.4693 209.372 77.36C211.071 76.2507 213.029 75.696 215.248 75.696H221.176C222.459 75.696 223.1 76.5107 223.1 78.14C223.169 79.7693 222.528 80.584 221.176 80.584H215.664C214.416 80.584 213.601 80.8267 213.22 81.312C212.839 81.7973 212.648 82.4733 212.648 83.34V104.816ZM233.417 98.68C233.417 99.512 233.677 100.292 234.197 101.02C234.751 101.748 235.67 102.112 236.953 102.112H243.453C244.735 102.112 245.637 101.8 246.157 101.176C246.711 100.517 246.989 99.772 246.989 98.94V98.368C246.989 96.7387 247.942 95.924 249.849 95.924C251.755 95.924 252.709 96.7387 252.709 98.368V98.992C252.709 100.448 252.466 101.644 251.981 102.58C251.53 103.516 250.837 104.331 249.901 105.024C248.063 106.341 246.226 107 244.389 107H235.653C233.815 107 232.03 106.341 230.297 105.024C229.465 104.331 228.823 103.464 228.373 102.424C227.922 101.349 227.697 100.119 227.697 98.732V83.912C227.697 81.104 228.563 79.024 230.297 77.672C231.163 77.048 232.047 76.5627 232.949 76.216C233.885 75.8347 234.786 75.644 235.653 75.644H244.389C245.221 75.644 246.139 75.8173 247.145 76.164C248.15 76.476 249.086 76.9093 249.953 77.464C250.785 78.0533 251.443 78.868 251.929 79.908C252.449 80.948 252.709 82.1787 252.709 83.6V90.62C252.709 91.4173 252.466 92.128 251.981 92.752C251.53 93.376 250.681 93.688 249.433 93.688H238.201C236.953 93.688 236.294 92.8733 236.225 91.244C236.225 89.6147 236.883 88.8 238.201 88.8H247.041L246.989 83.964C246.989 83.0973 246.711 82.3173 246.157 81.624C245.637 80.896 244.735 80.532 243.453 80.532H236.953C235.67 80.532 234.751 80.896 234.197 81.624C233.677 82.3173 233.417 83.0973 233.417 83.964V98.68Z" fill="url(#paint0_linear)"/>
</g>
<g filter="url(#filter1_i)">
<path d="M6 32C6 23.1634 13.1634 16 22 16H52C60.8366 16 68 23.1634 68 32V95C68 103.837 60.8366 111 52 111H22C13.1634 111 6 103.837 6 95V32Z" fill="#EB864D"/>
<path d="M6 32C6 23.1634 13.1634 16 22 16H52C60.8366 16 68 23.1634 68 32V95C68 103.837 60.8366 111 52 111H22C13.1634 111 6 103.837 6 95V32Z" fill="url(#paint1_linear)"/>
</g>
<path d="M29.4681 30.4084L27.9768 64.3013L27.964 64.255C27.9075 64.7689 27.7525 65.2271 27.4991 65.6297C27.2679 65.9929 26.921 66.2387 26.4586 66.3672C26.2119 66.4358 25.9567 66.4735 25.6929 66.4804C25.4685 66.5095 25.2244 66.5275 24.9606 66.5344L25.0069 66.5216C23.0952 66.455 22.1736 65.6483 22.2419 64.1016L23.8795 29.1218C23.8966 28.5857 24.0429 28.0966 24.3187 27.6546C24.6252 27.2041 25.032 26.8752 25.539 26.6678C26.0374 26.4297 26.529 26.2266 27.0138 26.0587C27.4899 25.86 27.8668 25.722 28.1442 25.6449C28.4217 25.5678 28.8157 25.4915 29.3261 25.4161C29.828 25.3098 30.3496 25.2147 30.8908 25.1307C31.3396 25.0724 31.8201 25.188 32.3323 25.4774C32.8753 25.7582 33.3105 26.0691 33.6377 26.4099C36.838 31.2331 40.0666 36.0983 43.3234 41.0054C46.6026 45.8731 49.8423 50.7186 53.0426 55.5418C53.8684 56.84 53.4951 58.0066 51.9228 59.0414C51.6933 59.1716 51.4749 59.2821 51.2676 59.3729C51.0998 59.486 50.8925 59.5768 50.6459 59.6453C50.2142 59.7653 49.7749 59.738 49.3278 59.5633C48.903 59.3492 48.5492 59.0324 48.2665 58.6127L48.2794 58.659L29.4681 30.4084ZM38.7974 50.5332C39.0715 51.5198 38.9526 52.4662 38.4406 53.3724C37.9508 54.2392 37.2126 54.8097 36.226 55.0839C35.2394 55.3581 34.3127 55.2503 33.4459 54.7605C32.5705 54.2399 31.9957 53.4862 31.7215 52.4996C31.4473 51.513 31.5551 50.5863 32.0449 49.7195C32.5261 48.8219 33.2601 48.236 34.2467 47.9618C35.2333 47.6876 36.1643 47.8108 37.0396 48.3315C37.9373 48.8127 38.5232 49.5466 38.7974 50.5332Z" fill="#050301"/>
<path d="M29.4681 30.4084L27.9768 64.3013L27.964 64.255C27.9075 64.7689 27.7525 65.2271 27.4991 65.6297C27.2679 65.9929 26.921 66.2387 26.4586 66.3672C26.2119 66.4358 25.9567 66.4735 25.6929 66.4804C25.4685 66.5095 25.2244 66.5275 24.9606 66.5344L25.0069 66.5216C23.0952 66.455 22.1736 65.6483 22.2419 64.1016L23.8795 29.1218C23.8966 28.5857 24.0429 28.0966 24.3187 27.6546C24.6252 27.2041 25.032 26.8752 25.539 26.6678C26.0374 26.4297 26.529 26.2266 27.0138 26.0587C27.4899 25.86 27.8668 25.722 28.1442 25.6449C28.4217 25.5678 28.8157 25.4915 29.3261 25.4161C29.828 25.3098 30.3496 25.2147 30.8908 25.1307C31.3396 25.0724 31.8201 25.188 32.3323 25.4774C32.8753 25.7582 33.3105 26.0691 33.6377 26.4099C36.838 31.2331 40.0666 36.0983 43.3234 41.0054C46.6026 45.8731 49.8423 50.7186 53.0426 55.5418C53.8684 56.84 53.4951 58.0066 51.9228 59.0414C51.6933 59.1716 51.4749 59.2821 51.2676 59.3729C51.0998 59.486 50.8925 59.5768 50.6459 59.6453C50.2142 59.7653 49.7749 59.738 49.3278 59.5633C48.903 59.3492 48.5492 59.0324 48.2665 58.6127L48.2794 58.659L29.4681 30.4084ZM38.7974 50.5332C39.0715 51.5198 38.9526 52.4662 38.4406 53.3724C37.9508 54.2392 37.2126 54.8097 36.226 55.0839C35.2394 55.3581 34.3127 55.2503 33.4459 54.7605C32.5705 54.2399 31.9957 53.4862 31.7215 52.4996C31.4473 51.513 31.5551 50.5863 32.0449 49.7195C32.5261 48.8219 33.2601 48.236 34.2467 47.9618C35.2333 47.6876 36.1643 47.8108 37.0396 48.3315C37.9373 48.8127 38.5232 49.5466 38.7974 50.5332Z" fill="url(#paint2_linear)"/>
<path d="M38.35 90.7769C38.3777 92.3126 37.4477 93.0975 35.56 93.1316C33.6723 93.1656 32.7146 92.4147 32.6869 90.879L32.0882 57.6684C32.0749 56.9325 32.2711 56.2729 32.6766 55.6895C33.0816 55.0741 33.876 54.7557 35.0598 54.7343L51.3771 54.4402C52.5289 54.4194 53.1513 55.2083 53.2441 56.8069C53.3375 58.4375 52.7443 59.2643 51.4645 59.2874L37.7867 59.534L38.35 90.7769ZM50.315 72.7503C50.3248 73.2942 50.2223 73.8241 50.0076 74.3401C49.8243 74.8235 49.5438 75.2446 49.1662 75.6035C48.8207 75.9617 48.4099 76.2572 47.934 76.4898C47.4576 76.6904 46.9314 76.7959 46.3555 76.8063C45.2677 76.8259 44.3329 76.4587 43.5512 75.7047C42.7694 74.9507 42.3685 74.0137 42.3483 72.8939C42.3281 71.7741 42.695 70.8233 43.4491 70.0416C44.2031 69.2599 45.124 68.8592 46.2118 68.8396C46.7878 68.8292 47.3177 68.9317 47.8016 69.147C48.285 69.3303 48.7062 69.6108 49.065 69.9884C49.4553 70.3334 49.7508 70.7441 49.9514 71.2206C50.184 71.6965 50.3052 72.2064 50.315 72.7503Z" fill="#050301"/>
<path d="M38.35 90.7769C38.3777 92.3126 37.4477 93.0975 35.56 93.1316C33.6723 93.1656 32.7146 92.4147 32.6869 90.879L32.0882 57.6684C32.0749 56.9325 32.2711 56.2729 32.6766 55.6895C33.0816 55.0741 33.876 54.7557 35.0598 54.7343L51.3771 54.4402C52.5289 54.4194 53.1513 55.2083 53.2441 56.8069C53.3375 58.4375 52.7443 59.2643 51.4645 59.2874L37.7867 59.534L38.35 90.7769ZM50.315 72.7503C50.3248 73.2942 50.2223 73.8241 50.0076 74.3401C49.8243 74.8235 49.5438 75.2446 49.1662 75.6035C48.8207 75.9617 48.4099 76.2572 47.934 76.4898C47.4576 76.6904 46.9314 76.7959 46.3555 76.8063C45.2677 76.8259 44.3329 76.4587 43.5512 75.7047C42.7694 74.9507 42.3685 74.0137 42.3483 72.8939C42.3281 71.7741 42.695 70.8233 43.4491 70.0416C44.2031 69.2599 45.124 68.8592 46.2118 68.8396C46.7878 68.8292 47.3177 68.9317 47.8016 69.147C48.285 69.3303 48.7062 69.6108 49.065 69.9884C49.4553 70.3334 49.7508 70.7441 49.9514 71.2206C50.184 71.6965 50.3052 72.2064 50.315 72.7503Z" fill="url(#paint3_linear)"/>
<defs>
<filter id="filter0_i" x="77.108" y="65.244" width="175.601" height="46.172" filterUnits="userSpaceOnUse" color-interpolation-filters="sRGB">
<feFlood flood-opacity="0" result="BackgroundImageFix"/>
<feBlend mode="normal" in="SourceGraphic" in2="BackgroundImageFix" result="shape"/>
<feColorMatrix in="SourceAlpha" type="matrix" values="0 0 0 0 0 0 0 0 0 0 0 0 0 0 0 0 0 0 127 0" result="hardAlpha"/>
<feOffset dy="4"/>
<feGaussianBlur stdDeviation="2"/>
<feComposite in2="hardAlpha" operator="arithmetic" k2="-1" k3="1"/>
<feColorMatrix type="matrix" values="0 0 0 0 0 0 0 0 0 0 0 0 0 0 0 0 0 0 0.25 0"/>
<feBlend mode="normal" in2="shape" result="effect1_innerShadow"/>
</filter>
<filter id="filter1_i" x="6" y="16" width="62" height="99" filterUnits="userSpaceOnUse" color-interpolation-filters="sRGB">
<feFlood flood-opacity="0" result="BackgroundImageFix"/>
<feBlend mode="normal" in="SourceGraphic" in2="BackgroundImageFix" result="shape"/>
<feColorMatrix in="SourceAlpha" type="matrix" values="0 0 0 0 0 0 0 0 0 0 0 0 0 0 0 0 0 0 127 0" result="hardAlpha"/>
<feOffset dy="4"/>
<feGaussianBlur stdDeviation="2"/>
<feComposite in2="hardAlpha" operator="arithmetic" k2="-1" k3="1"/>
<feColorMatrix type="matrix" values="0 0 0 0 0 0 0 0 0 0 0 0 0 0 0 0 0 0 0.25 0"/>
<feBlend mode="normal" in2="shape" result="effect1_innerShadow"/>
</filter>
<linearGradient id="paint0_linear" x1="164.5" y1="80" x2="200.033" y2="115.587" gradientUnits="userSpaceOnUse">
<stop stop-color="#00596C"/>
<stop offset="0.125" stop-color="#EB864D"/>
</linearGradient>
<linearGradient id="paint1_linear" x1="37" y1="16" x2="87.1333" y2="56.9211" gradientUnits="userSpaceOnUse">
<stop stop-color="#F78B4F"/>
<stop offset="0.529106" stop-color="#F58648"/>
<stop offset="0.973958" stop-color="#EB864D"/>
</linearGradient>
<linearGradient id="paint2_linear" x1="37.6986" y1="36.8477" x2="44" y2="44" gradientUnits="userSpaceOnUse">
<stop offset="0.869792" stop-color="#F9C746"/>
<stop offset="1" stop-color="#00596C"/>
</linearGradient>
<linearGradient id="paint3_linear" x1="47.3508" y1="67.6269" x2="67" y2="83" gradientUnits="userSpaceOnUse">
<stop stop-color="#00596C"/>
<stop offset="1" stop-color="#F96746"/>
</linearGradient>
</defs>
</svg>
