<svg width="376" height="142" viewBox="0 0 376 142" fill="none" xmlns="http://www.w3.org/2000/svg">
<g filter="url(#filter0_i)">
<path d="M116.33 78.8C116.33 82.58 115.07 85.4033 112.55 87.27C111.337 88.1567 110.077 88.8567 108.77 89.37C107.51 89.8367 106.273 90.07 105.06 90.07H89.8C88.5867 90.07 87.3267 89.8367 86.02 89.37C84.76 88.8567 83.5233 88.1567 82.31 87.27C81.0967 86.3367 80.1633 85.1933 79.51 83.84C78.8567 82.44 78.53 80.76 78.53 78.8V45.55C78.53 43.6833 78.8567 42.05 79.51 40.65C80.1633 39.2033 81.0967 38.0367 82.31 37.15H82.24C83.4533 36.3567 84.7133 35.7033 86.02 35.19C87.3267 34.6767 88.5867 34.42 89.8 34.42H105.06C106.273 34.42 107.533 34.6767 108.84 35.19C110.147 35.7033 111.407 36.3567 112.62 37.15H112.55C113.763 38.0367 114.697 39.2033 115.35 40.65C116.003 42.05 116.33 43.6833 116.33 45.55V50.38C116.33 52.62 114.93 53.74 112.13 53.74C109.377 53.74 108 52.62 108 50.38V46.18C108 45.0133 107.65 43.94 106.95 42.96C106.25 41.98 105.037 41.49 103.31 41.49H91.55C89.8233 41.49 88.61 41.98 87.91 42.96C87.21 43.94 86.86 45.0133 86.86 46.18V78.24C86.86 79.4533 87.21 80.55 87.91 81.53C88.61 82.51 89.8233 83 91.55 83H103.31C105.037 83 106.25 82.51 106.95 81.53C107.65 80.55 108 79.4533 108 78.24V74.18C108 71.9867 109.377 70.89 112.13 70.89C114.93 70.89 116.33 71.9867 116.33 74.18V78.8ZM159.692 78.87C159.692 80.7367 159.365 82.3933 158.712 83.84C158.058 85.2867 157.125 86.4533 155.912 87.34H155.982C154.815 88.1333 153.578 88.7867 152.272 89.3C150.965 89.7667 149.705 90 148.492 90H137.222C136.055 90 134.795 89.7667 133.442 89.3C132.135 88.7867 130.898 88.1333 129.732 87.34H129.802C128.588 86.4533 127.655 85.2867 127.002 83.84C126.348 82.3933 126.022 80.7367 126.022 78.87V50.8C126.022 48.56 127.305 47.44 129.872 47.44C132.438 47.44 133.722 48.56 133.722 50.8V78.31C133.722 79.6167 134.048 80.76 134.702 81.74C135.308 82.86 136.568 83.42 138.482 83.42H147.232C149.098 83.42 150.335 82.86 150.942 81.74L150.872 81.81C151.618 80.69 151.992 79.5233 151.992 78.31V50.8C151.992 48.56 153.275 47.44 155.842 47.44C158.408 47.44 159.692 48.56 159.692 50.8V78.87ZM176.653 87.27C176.653 89.4633 175.369 90.56 172.803 90.56C170.189 90.56 168.883 89.4633 168.883 87.27V37.08C168.883 34.8867 170.189 33.79 172.803 33.79C175.369 33.79 176.653 34.8867 176.653 37.08V87.27ZM195.679 54.44V79.92C195.679 81.1333 195.936 82.0667 196.449 82.72C196.963 83.3733 198.059 83.7 199.739 83.7H201.559C203.379 83.7 204.243 84.7733 204.149 86.92C204.149 89.1133 203.286 90.21 201.559 90.21H199.249C197.756 90.21 196.356 90.0233 195.049 89.65C193.743 89.23 192.483 88.6467 191.269 87.9V87.97C188.983 86.4767 187.839 83.8167 187.839 79.99V54.44H185.109C183.429 54.44 182.543 53.3433 182.449 51.15C182.449 48.9567 183.336 47.86 185.109 47.86H187.839V40.37C187.839 38.13 189.169 37.01 191.829 37.01C194.396 37.01 195.679 38.13 195.679 40.37V47.86H201.489C203.309 47.86 204.173 48.9567 204.079 51.15C204.079 53.3433 203.216 54.44 201.489 54.44H195.679ZM244.1 78.87C244.1 80.7367 243.773 82.3933 243.12 83.84C242.467 85.2867 241.533 86.4533 240.32 87.34H240.39C239.223 88.1333 237.987 88.7867 236.68 89.3C235.373 89.7667 234.113 90 232.9 90H221.63C220.463 90 219.203 89.7667 217.85 89.3C216.543 88.7867 215.307 88.1333 214.14 87.34H214.21C212.997 86.4533 212.063 85.2867 211.41 83.84C210.757 82.3933 210.43 80.7367 210.43 78.87V50.8C210.43 48.56 211.713 47.44 214.28 47.44C216.847 47.44 218.13 48.56 218.13 50.8V78.31C218.13 79.6167 218.457 80.76 219.11 81.74C219.717 82.86 220.977 83.42 222.89 83.42H231.64C233.507 83.42 234.743 82.86 235.35 81.74L235.28 81.81C236.027 80.69 236.4 79.5233 236.4 78.31V50.8C236.4 48.56 237.683 47.44 240.25 47.44C242.817 47.44 244.1 48.56 244.1 50.8V78.87ZM260.641 87.06C260.641 89.3 259.358 90.42 256.791 90.42C254.131 90.42 252.801 89.3 252.801 87.06V58.08C252.801 54.2533 253.945 51.5933 256.231 50.1C258.518 48.6067 261.155 47.86 264.141 47.86H272.121C273.848 47.86 274.711 48.9567 274.711 51.15C274.805 53.3433 273.941 54.44 272.121 54.44H264.701C263.021 54.44 261.925 54.7667 261.411 55.42C260.898 56.0733 260.641 56.9833 260.641 58.15V87.06ZM288.53 78.8C288.53 79.92 288.88 80.97 289.58 81.95C290.327 82.93 291.563 83.42 293.29 83.42H302.04C303.767 83.42 304.98 83 305.68 82.16C306.427 81.2733 306.8 80.27 306.8 79.15V78.38C306.8 76.1867 308.083 75.09 310.65 75.09C313.217 75.09 314.5 76.1867 314.5 78.38V79.22C314.5 81.18 314.173 82.79 313.52 84.05C312.913 85.31 311.98 86.4067 310.72 87.34C308.247 89.1133 305.773 90 303.3 90H291.54C289.067 90 286.663 89.1133 284.33 87.34C283.21 86.4067 282.347 85.24 281.74 83.84C281.133 82.3933 280.83 80.7367 280.83 78.87V58.92C280.83 55.14 281.997 52.34 284.33 50.52C285.497 49.68 286.687 49.0267 287.9 48.56C289.16 48.0467 290.373 47.79 291.54 47.79H303.3C304.42 47.79 305.657 48.0233 307.01 48.49C308.363 48.91 309.623 49.4933 310.79 50.24C311.91 51.0333 312.797 52.13 313.45 53.53C314.15 54.93 314.5 56.5867 314.5 58.5V67.95C314.5 69.0233 314.173 69.98 313.52 70.82C312.913 71.66 311.77 72.08 310.09 72.08H294.97C293.29 72.08 292.403 70.9833 292.31 68.79C292.31 66.5967 293.197 65.5 294.97 65.5H306.87L306.8 58.99C306.8 57.8233 306.427 56.7733 305.68 55.84C304.98 54.86 303.767 54.37 302.04 54.37H293.29C291.563 54.37 290.327 54.86 289.58 55.84C288.88 56.7733 288.53 57.8233 288.53 58.99V78.8Z" fill="#EB864D"/>
<path d="M116.33 78.8C116.33 82.58 115.07 85.4033 112.55 87.27C111.337 88.1567 110.077 88.8567 108.77 89.37C107.51 89.8367 106.273 90.07 105.06 90.07H89.8C88.5867 90.07 87.3267 89.8367 86.02 89.37C84.76 88.8567 83.5233 88.1567 82.31 87.27C81.0967 86.3367 80.1633 85.1933 79.51 83.84C78.8567 82.44 78.53 80.76 78.53 78.8V45.55C78.53 43.6833 78.8567 42.05 79.51 40.65C80.1633 39.2033 81.0967 38.0367 82.31 37.15H82.24C83.4533 36.3567 84.7133 35.7033 86.02 35.19C87.3267 34.6767 88.5867 34.42 89.8 34.42H105.06C106.273 34.42 107.533 34.6767 108.84 35.19C110.147 35.7033 111.407 36.3567 112.62 37.15H112.55C113.763 38.0367 114.697 39.2033 115.35 40.65C116.003 42.05 116.33 43.6833 116.33 45.55V50.38C116.33 52.62 114.93 53.74 112.13 53.74C109.377 53.74 108 52.62 108 50.38V46.18C108 45.0133 107.65 43.94 106.95 42.96C106.25 41.98 105.037 41.49 103.31 41.49H91.55C89.8233 41.49 88.61 41.98 87.91 42.96C87.21 43.94 86.86 45.0133 86.86 46.18V78.24C86.86 79.4533 87.21 80.55 87.91 81.53C88.61 82.51 89.8233 83 91.55 83H103.31C105.037 83 106.25 82.51 106.95 81.53C107.65 80.55 108 79.4533 108 78.24V74.18C108 71.9867 109.377 70.89 112.13 70.89C114.93 70.89 116.33 71.9867 116.33 74.18V78.8ZM159.692 78.87C159.692 80.7367 159.365 82.3933 158.712 83.84C158.058 85.2867 157.125 86.4533 155.912 87.34H155.982C154.815 88.1333 153.578 88.7867 152.272 89.3C150.965 89.7667 149.705 90 148.492 90H137.222C136.055 90 134.795 89.7667 133.442 89.3C132.135 88.7867 130.898 88.1333 129.732 87.34H129.802C128.588 86.4533 127.655 85.2867 127.002 83.84C126.348 82.3933 126.022 80.7367 126.022 78.87V50.8C126.022 48.56 127.305 47.44 129.872 47.44C132.438 47.44 133.722 48.56 133.722 50.8V78.31C133.722 79.6167 134.048 80.76 134.702 81.74C135.308 82.86 136.568 83.42 138.482 83.42H147.232C149.098 83.42 150.335 82.86 150.942 81.74L150.872 81.81C151.618 80.69 151.992 79.5233 151.992 78.31V50.8C151.992 48.56 153.275 47.44 155.842 47.44C158.408 47.44 159.692 48.56 159.692 50.8V78.87ZM176.653 87.27C176.653 89.4633 175.369 90.56 172.803 90.56C170.189 90.56 168.883 89.4633 168.883 87.27V37.08C168.883 34.8867 170.189 33.79 172.803 33.79C175.369 33.79 176.653 34.8867 176.653 37.08V87.27ZM195.679 54.44V79.92C195.679 81.1333 195.936 82.0667 196.449 82.72C196.963 83.3733 198.059 83.7 199.739 83.7H201.559C203.379 83.7 204.243 84.7733 204.149 86.92C204.149 89.1133 203.286 90.21 201.559 90.21H199.249C197.756 90.21 196.356 90.0233 195.049 89.65C193.743 89.23 192.483 88.6467 191.269 87.9V87.97C188.983 86.4767 187.839 83.8167 187.839 79.99V54.44H185.109C183.429 54.44 182.543 53.3433 182.449 51.15C182.449 48.9567 183.336 47.86 185.109 47.86H187.839V40.37C187.839 38.13 189.169 37.01 191.829 37.01C194.396 37.01 195.679 38.13 195.679 40.37V47.86H201.489C203.309 47.86 204.173 48.9567 204.079 51.15C204.079 53.3433 203.216 54.44 201.489 54.44H195.679ZM244.1 78.87C244.1 80.7367 243.773 82.3933 243.12 83.84C242.467 85.2867 241.533 86.4533 240.32 87.34H240.39C239.223 88.1333 237.987 88.7867 236.68 89.3C235.373 89.7667 234.113 90 232.9 90H221.63C220.463 90 219.203 89.7667 217.85 89.3C216.543 88.7867 215.307 88.1333 214.14 87.34H214.21C212.997 86.4533 212.063 85.2867 211.41 83.84C210.757 82.3933 210.43 80.7367 210.43 78.87V50.8C210.43 48.56 211.713 47.44 214.28 47.44C216.847 47.44 218.13 48.56 218.13 50.8V78.31C218.13 79.6167 218.457 80.76 219.11 81.74C219.717 82.86 220.977 83.42 222.89 83.42H231.64C233.507 83.42 234.743 82.86 235.35 81.74L235.28 81.81C236.027 80.69 236.4 79.5233 236.4 78.31V50.8C236.4 48.56 237.683 47.44 240.25 47.44C242.817 47.44 244.1 48.56 244.1 50.8V78.87ZM260.641 87.06C260.641 89.3 259.358 90.42 256.791 90.42C254.131 90.42 252.801 89.3 252.801 87.06V58.08C252.801 54.2533 253.945 51.5933 256.231 50.1C258.518 48.6067 261.155 47.86 264.141 47.86H272.121C273.848 47.86 274.711 48.9567 274.711 51.15C274.805 53.3433 273.941 54.44 272.121 54.44H264.701C263.021 54.44 261.925 54.7667 261.411 55.42C260.898 56.0733 260.641 56.9833 260.641 58.15V87.06ZM288.53 78.8C288.53 79.92 288.88 80.97 289.58 81.95C290.327 82.93 291.563 83.42 293.29 83.42H302.04C303.767 83.42 304.98 83 305.68 82.16C306.427 81.2733 306.8 80.27 306.8 79.15V78.38C306.8 76.1867 308.083 75.09 310.65 75.09C313.217 75.09 314.5 76.1867 314.5 78.38V79.22C314.5 81.18 314.173 82.79 313.52 84.05C312.913 85.31 311.98 86.4067 310.72 87.34C308.247 89.1133 305.773 90 303.3 90H291.54C289.067 90 286.663 89.1133 284.33 87.34C283.21 86.4067 282.347 85.24 281.74 83.84C281.133 82.3933 280.83 80.7367 280.83 78.87V58.92C280.83 55.14 281.997 52.34 284.33 50.52C285.497 49.68 286.687 49.0267 287.9 48.56C289.16 48.0467 290.373 47.79 291.54 47.79H303.3C304.42 47.79 305.657 48.0233 307.01 48.49C308.363 48.91 309.623 49.4933 310.79 50.24C311.91 51.0333 312.797 52.13 313.45 53.53C314.15 54.93 314.5 56.5867 314.5 58.5V67.95C314.5 69.0233 314.173 69.98 313.52 70.82C312.913 71.66 311.77 72.08 310.09 72.08H294.97C293.29 72.08 292.403 70.9833 292.31 68.79C292.31 66.5967 293.197 65.5 294.97 65.5H306.87L306.8 58.99C306.8 57.8233 306.427 56.7733 305.68 55.84C304.98 54.86 303.767 54.37 302.04 54.37H293.29C291.563 54.37 290.327 54.86 289.58 55.84C288.88 56.7733 288.53 57.8233 288.53 58.99V78.8Z" fill="url(#paint0_linear)"/>
</g>
<g filter="url(#filter1_i)">
<path d="M14 46C14 39.3726 19.3726 34 26 34H43C49.6274 34 55 39.3726 55 46V78C55 84.6274 49.6274 90 43 90H26C19.3726 90 14 84.6274 14 78V46Z" fill="#EB864D"/>
<path d="M14 46C14 39.3726 19.3726 34 26 34H43C49.6274 34 55 39.3726 55 46V78C55 84.6274 49.6274 90 43 90H26C19.3726 90 14 84.6274 14 78V46Z" fill="url(#paint1_linear)"/>
</g>
<g filter="url(#filter2_d)">
<path d="M29.3102 39.5172L29.4113 65.2845L29.4002 65.2503C29.3767 65.6431 29.2785 65.9998 29.1055 66.3206C28.9475 66.6101 28.6999 66.8179 28.3628 66.944C28.1829 67.0113 27.9957 67.0557 27.801 67.0774C27.6362 67.1134 27.4565 67.1423 27.2618 67.1639L27.2955 67.1513C25.8806 67.2198 25.1709 66.6661 25.1665 65.4901L25.1349 38.8904C25.1285 38.4832 25.2193 38.1036 25.4074 37.7517C25.6179 37.3913 25.9068 37.1168 26.2741 36.9282C26.634 36.7168 26.99 36.5324 27.3423 36.375C27.6871 36.1948 27.9606 36.0669 28.1629 35.9912C28.3652 35.9155 28.6536 35.8332 29.0281 35.7443C29.3952 35.6326 29.7773 35.5281 30.1743 35.4308C30.5038 35.3587 30.863 35.4163 31.2517 35.6037C31.663 35.7826 31.9955 35.991 32.2494 36.2289C34.7854 39.6834 37.3439 43.1679 39.9247 46.6825C42.5205 50.1658 45.0865 53.6348 47.6226 57.0893C48.2789 58.0214 48.0444 58.9283 46.9193 59.81C46.7543 59.9229 46.5969 60.0202 46.4469 60.1019C46.3269 60.198 46.177 60.2797 45.9972 60.347C45.6825 60.4647 45.3568 60.4713 45.0203 60.3668C44.6987 60.2311 44.4261 60.0131 44.2023 59.7128L44.2134 59.747L29.3102 39.5172ZM36.9184 54.1816C37.156 54.9119 37.1017 55.6363 36.7555 56.3546C36.4243 57.0417 35.8991 57.5198 35.1798 57.7889C34.4605 58.058 33.7719 58.034 33.114 57.7169C32.4487 57.377 31.9972 56.8419 31.7596 56.1116C31.5219 55.3812 31.5687 54.6725 31.8998 53.9855C32.2236 53.2755 32.7451 52.786 33.4644 52.5169C34.1837 52.2478 34.876 52.2832 35.5414 52.6232C36.2217 52.9318 36.6807 53.4513 36.9184 54.1816Z" fill="#050301"/>
<path d="M29.3102 39.5172L29.4113 65.2845L29.4002 65.2503C29.3767 65.6431 29.2785 65.9998 29.1055 66.3206C28.9475 66.6101 28.6999 66.8179 28.3628 66.944C28.1829 67.0113 27.9957 67.0557 27.801 67.0774C27.6362 67.1134 27.4565 67.1423 27.2618 67.1639L27.2955 67.1513C25.8806 67.2198 25.1709 66.6661 25.1665 65.4901L25.1349 38.8904C25.1285 38.4832 25.2193 38.1036 25.4074 37.7517C25.6179 37.3913 25.9068 37.1168 26.2741 36.9282C26.634 36.7168 26.99 36.5324 27.3423 36.375C27.6871 36.1948 27.9606 36.0669 28.1629 35.9912C28.3652 35.9155 28.6536 35.8332 29.0281 35.7443C29.3952 35.6326 29.7773 35.5281 30.1743 35.4308C30.5038 35.3587 30.863 35.4163 31.2517 35.6037C31.663 35.7826 31.9955 35.991 32.2494 36.2289C34.7854 39.6834 37.3439 43.1679 39.9247 46.6825C42.5205 50.1658 45.0865 53.6348 47.6226 57.0893C48.2789 58.0214 48.0444 58.9283 46.9193 59.81C46.7543 59.9229 46.5969 60.0202 46.4469 60.1019C46.3269 60.198 46.177 60.2797 45.9972 60.347C45.6825 60.4647 45.3568 60.4713 45.0203 60.3668C44.6987 60.2311 44.4261 60.0131 44.2023 59.7128L44.2134 59.747L29.3102 39.5172ZM36.9184 54.1816C37.156 54.9119 37.1017 55.6363 36.7555 56.3546C36.4243 57.0417 35.8991 57.5198 35.1798 57.7889C34.4605 58.058 33.7719 58.034 33.114 57.7169C32.4487 57.377 31.9972 56.8419 31.7596 56.1116C31.5219 55.3812 31.5687 54.6725 31.8998 53.9855C32.2236 53.2755 32.7451 52.786 33.4644 52.5169C34.1837 52.2478 34.876 52.2832 35.5414 52.6232C36.2217 52.9318 36.6807 53.4513 36.9184 54.1816Z" fill="url(#paint2_linear)"/>
</g>
<g filter="url(#filter3_d)">
<path d="M35.1392 84.249C35.1382 85.401 34.4297 85.9785 33.0137 85.9816C31.5977 85.9846 30.8902 85.4101 30.8912 84.2581L30.9134 59.3461C30.9139 58.7941 31.0703 58.3018 31.3827 57.8691C31.6951 57.4124 32.2953 57.1832 33.1833 57.1813L45.4233 57.155C46.2873 57.1532 46.7428 57.7522 46.7897 58.9521C46.8366 60.176 46.3801 60.7889 45.4201 60.791L35.1601 60.813L35.1392 84.249ZM44.3671 70.8732C44.3667 71.2812 44.2824 71.6774 44.114 72.0618C43.9697 72.4221 43.7534 72.7345 43.4652 72.9992C43.201 73.2637 42.8888 73.4804 42.5286 73.6492C42.1685 73.7939 41.7724 73.8668 41.3404 73.8677C40.5244 73.8695 39.8287 73.583 39.2532 73.0082C38.6777 72.4334 38.3904 71.7261 38.3911 70.8861C38.3919 70.0461 38.6805 69.3374 39.257 68.7602C39.8335 68.183 40.5298 67.8935 41.3458 67.8917C41.7778 67.8908 42.1737 67.9739 42.5335 68.1412C42.8934 68.2844 43.2052 68.4997 43.4689 68.7872C43.7567 69.0506 43.9724 69.3621 44.1161 69.7218C44.2838 70.0814 44.3675 70.4652 44.3671 70.8732Z" fill="#050301"/>
<path d="M35.1392 84.249C35.1382 85.401 34.4297 85.9785 33.0137 85.9816C31.5977 85.9846 30.8902 85.4101 30.8912 84.2581L30.9134 59.3461C30.9139 58.7941 31.0703 58.3018 31.3827 57.8691C31.6951 57.4124 32.2953 57.1832 33.1833 57.1813L45.4233 57.155C46.2873 57.1532 46.7428 57.7522 46.7897 58.9521C46.8366 60.176 46.3801 60.7889 45.4201 60.791L35.1601 60.813L35.1392 84.249ZM44.3671 70.8732C44.3667 71.2812 44.2824 71.6774 44.114 72.0618C43.9697 72.4221 43.7534 72.7345 43.4652 72.9992C43.201 73.2637 42.8888 73.4804 42.5286 73.6492C42.1685 73.7939 41.7724 73.8668 41.3404 73.8677C40.5244 73.8695 39.8287 73.583 39.2532 73.0082C38.6777 72.4334 38.3904 71.7261 38.3911 70.8861C38.3919 70.0461 38.6805 69.3374 39.257 68.7602C39.8335 68.183 40.5298 67.8935 41.3458 67.8917C41.7778 67.8908 42.1737 67.9739 42.5335 68.1412C42.8934 68.2844 43.2052 68.4997 43.4689 68.7872C43.7567 69.0506 43.9724 69.3621 44.1161 69.7218C44.2838 70.0814 44.3675 70.4652 44.3671 70.8732Z" fill="url(#paint3_linear)"/>
</g>
<defs>
<filter id="filter0_i" x="78.53" y="33.79" width="235.97" height="60.77" filterUnits="userSpaceOnUse" color-interpolation-filters="sRGB">
<feFlood flood-opacity="0" result="BackgroundImageFix"/>
<feBlend mode="normal" in="SourceGraphic" in2="BackgroundImageFix" result="shape"/>
<feColorMatrix in="SourceAlpha" type="matrix" values="0 0 0 0 0 0 0 0 0 0 0 0 0 0 0 0 0 0 127 0" result="hardAlpha"/>
<feOffset dy="4"/>
<feGaussianBlur stdDeviation="2"/>
<feComposite in2="hardAlpha" operator="arithmetic" k2="-1" k3="1"/>
<feColorMatrix type="matrix" values="0 0 0 0 0 0 0 0 0 0 0 0 0 0 0 0 0 0 0.25 0"/>
<feBlend mode="normal" in2="shape" result="effect1_innerShadow"/>
</filter>
<filter id="filter1_i" x="14" y="34" width="41" height="60" filterUnits="userSpaceOnUse" color-interpolation-filters="sRGB">
<feFlood flood-opacity="0" result="BackgroundImageFix"/>
<feBlend mode="normal" in="SourceGraphic" in2="BackgroundImageFix" result="shape"/>
<feColorMatrix in="SourceAlpha" type="matrix" values="0 0 0 0 0 0 0 0 0 0 0 0 0 0 0 0 0 0 127 0" result="hardAlpha"/>
<feOffset dy="4"/>
<feGaussianBlur stdDeviation="2"/>
<feComposite in2="hardAlpha" operator="arithmetic" k2="-1" k3="1"/>
<feColorMatrix type="matrix" values="0 0 0 0 0 0 0 0 0 0 0 0 0 0 0 0 0 0 0.25 0"/>
<feBlend mode="normal" in2="shape" result="effect1_innerShadow"/>
</filter>
<filter id="filter2_d" x="21.1346" y="35.4007" width="30.8506" height="39.7632" filterUnits="userSpaceOnUse" color-interpolation-filters="sRGB">
<feFlood flood-opacity="0" result="BackgroundImageFix"/>
<feColorMatrix in="SourceAlpha" type="matrix" values="0 0 0 0 0 0 0 0 0 0 0 0 0 0 0 0 0 0 127 0"/>
<feOffset dy="4"/>
<feGaussianBlur stdDeviation="2"/>
<feColorMatrix type="matrix" values="0 0 0 0 0 0 0 0 0 0 0 0 0 0 0 0 0 0 0.25 0"/>
<feBlend mode="normal" in2="BackgroundImageFix" result="effect1_dropShadow"/>
<feBlend mode="normal" in="SourceGraphic" in2="effect1_dropShadow" result="shape"/>
</filter>
<filter id="filter3_d" x="26.8912" y="57.155" width="23.9017" height="36.8266" filterUnits="userSpaceOnUse" color-interpolation-filters="sRGB">
<feFlood flood-opacity="0" result="BackgroundImageFix"/>
<feColorMatrix in="SourceAlpha" type="matrix" values="0 0 0 0 0 0 0 0 0 0 0 0 0 0 0 0 0 0 127 0"/>
<feOffset dy="4"/>
<feGaussianBlur stdDeviation="2"/>
<feColorMatrix type="matrix" values="0 0 0 0 0 0 0 0 0 0 0 0 0 0 0 0 0 0 0.25 0"/>
<feBlend mode="normal" in2="BackgroundImageFix" result="effect1_dropShadow"/>
<feBlend mode="normal" in="SourceGraphic" in2="effect1_dropShadow" result="shape"/>
</filter>
<linearGradient id="paint0_linear" x1="224.5" y1="57" x2="292.52" y2="115.217" gradientUnits="userSpaceOnUse">
<stop stop-color="#00596C"/>
<stop offset="0.125" stop-color="#EB864D"/>
</linearGradient>
<linearGradient id="paint1_linear" x1="34.5" y1="34" x2="64.5469" y2="61.5137" gradientUnits="userSpaceOnUse">
<stop stop-color="#F78B4F"/>
<stop offset="0.529106" stop-color="#F58648"/>
<stop offset="0.973958" stop-color="#EB864D"/>
</linearGradient>
<linearGradient id="paint2_linear" x1="37.4527" y1="39.8547" x2="42.1764" y2="48.9287" gradientUnits="userSpaceOnUse">
<stop offset="0.869792" stop-color="#F9C746"/>
<stop offset="1" stop-color="#00596C"/>
</linearGradient>
<linearGradient id="paint3_linear" x1="45.432" y1="64.739" x2="55.266" y2="78.6297" gradientUnits="userSpaceOnUse">
<stop stop-color="#00596C"/>
<stop offset="1" stop-color="#F96746"/>
</linearGradient>
</defs>
</svg>
