<svg width="168" height="43" viewBox="0 0 168 43" fill="none" xmlns="http://www.w3.org/2000/svg">
<rect x="0.5" y="0.5" width="167" height="38" rx="19" fill="#F9C746"/>
<rect x="0.5" y="0.5" width="167" height="38" rx="19" stroke="#00596C"/>
<rect x="0.5" y="0.5" width="167" height="38" rx="19" stroke="url(#paint0_linear)"/>
<g filter="url(#filter0_d)">
<path d="M47.176 22.632H47.824C47.904 23.768 48.328 24.712 49.096 25.464C49.88 26.2 50.848 26.568 52 26.568C53.104 26.568 53.952 26.24 54.544 25.584C55.152 24.912 55.456 24.112 55.456 23.184C55.456 22.432 55.232 21.808 54.784 21.312C54.336 20.816 53.632 20.36 52.672 19.944L51.232 19.32C49.952 18.76 48.984 18.144 48.328 17.472C47.672 16.8 47.344 15.904 47.344 14.784C47.344 13.408 47.8 12.416 48.712 11.808C49.64 11.184 50.776 10.872 52.12 10.872C52.696 10.872 53.16 10.92 53.512 11.016C53.864 11.112 54.2 11.24 54.52 11.4C54.776 11.512 54.952 11.568 55.048 11.568C55.192 11.568 55.296 11.504 55.36 11.376C55.424 11.248 55.472 11.08 55.504 10.872H56.08L56.32 15.048H55.672C55.576 14.072 55.224 13.256 54.616 12.6C54.008 11.928 53.144 11.592 52.024 11.592C51.144 11.592 50.448 11.824 49.936 12.288C49.424 12.736 49.168 13.464 49.168 14.472C49.168 15.24 49.352 15.848 49.72 16.296C50.088 16.744 50.736 17.16 51.664 17.544L53.056 18.144C53.952 18.544 54.68 18.92 55.24 19.272C55.816 19.608 56.296 20.072 56.68 20.664C57.08 21.256 57.28 22 57.28 22.896C57.28 24.352 56.776 25.448 55.768 26.184C54.776 26.92 53.536 27.288 52.048 27.288C51.456 27.288 50.96 27.24 50.56 27.144C50.176 27.064 49.76 26.944 49.312 26.784C49.008 26.656 48.776 26.592 48.616 26.592C48.312 26.592 48.144 26.824 48.112 27.288H47.464L47.176 22.632ZM62.2053 13.224C61.8693 13.224 61.5893 13.112 61.3653 12.888C61.1413 12.664 61.0293 12.392 61.0293 12.072C61.0293 11.72 61.1333 11.432 61.3413 11.208C61.5653 10.984 61.8533 10.872 62.2053 10.872C62.5573 10.872 62.8373 10.984 63.0453 11.208C63.2693 11.432 63.3813 11.72 63.3813 12.072C63.3653 12.408 63.2453 12.688 63.0213 12.912C62.8133 13.12 62.5413 13.224 62.2053 13.224ZM59.7573 26.352C60.3333 26.352 60.7253 26.328 60.9333 26.28C61.1573 26.216 61.3013 26.104 61.3653 25.944C61.4293 25.768 61.4613 25.456 61.4613 25.008V17.736C61.4613 17.336 61.4133 17.072 61.3173 16.944C61.2213 16.8 61.0293 16.728 60.7413 16.728H59.8533V16.08L62.3973 15.648H63.0453V25.008C63.0453 25.44 63.0773 25.744 63.1413 25.92C63.2053 26.096 63.3493 26.216 63.5733 26.28C63.7973 26.328 64.1893 26.352 64.7493 26.352V27H59.7573V26.352ZM77.5343 15.504C78.0462 15.504 78.4542 15.656 78.7582 15.96C79.0623 16.248 79.2143 16.6 79.2143 17.016C79.2143 17.336 79.1263 17.6 78.9502 17.808C78.7902 18 78.5662 18.096 78.2782 18.096C78.0062 18.096 77.7822 18.016 77.6062 17.856C77.4302 17.696 77.3422 17.496 77.3422 17.256C77.3422 17.176 77.3582 17.088 77.3902 16.992C77.4222 16.88 77.4382 16.784 77.4382 16.704C77.4382 16.576 77.3822 16.472 77.2702 16.392C77.1742 16.312 77.0622 16.272 76.9342 16.272C76.6942 16.272 76.3582 16.568 75.9262 17.16C76.3102 17.752 76.5022 18.456 76.5022 19.272C76.5022 20.536 76.0782 21.472 75.2302 22.08C74.3822 22.688 73.3502 22.992 72.1342 22.992C71.5582 22.992 71.0462 22.928 70.5982 22.8C69.5422 23.296 69.0142 23.856 69.0142 24.48C69.0142 25.264 69.8542 25.656 71.5342 25.656H72.9982C74.5502 25.656 75.6622 25.888 76.3342 26.352C77.0062 26.816 77.3422 27.512 77.3422 28.44C77.3422 29.688 76.8382 30.608 75.8302 31.2C74.8222 31.792 73.5182 32.088 71.9182 32.088C70.4942 32.088 69.3422 31.856 68.4622 31.392C67.5982 30.928 67.1662 30.216 67.1662 29.256C67.1662 28.728 67.3182 28.264 67.6222 27.864C67.9422 27.464 68.4542 27.12 69.1582 26.832C68.6942 26.688 68.3262 26.44 68.0542 26.088C67.7982 25.736 67.6702 25.368 67.6702 24.984C67.6702 24.536 67.8462 24.104 68.1982 23.688C68.5662 23.256 69.1102 22.872 69.8302 22.536C69.1902 22.248 68.6862 21.84 68.3182 21.312C67.9502 20.768 67.7662 20.088 67.7662 19.272C67.7662 18.008 68.1902 17.064 69.0382 16.44C69.9022 15.816 70.9342 15.504 72.1342 15.504C72.8062 15.504 73.4382 15.6 74.0302 15.792C74.6222 15.984 75.1182 16.28 75.5182 16.68C76.1102 15.896 76.7822 15.504 77.5343 15.504ZM72.0142 22.344C73.0382 22.344 73.7422 22.08 74.1262 21.552C74.5262 21.024 74.7262 20.216 74.7262 19.128C74.7262 18.2 74.5182 17.472 74.1022 16.944C73.6862 16.416 73.0302 16.152 72.1342 16.152C71.2542 16.152 70.5982 16.432 70.1662 16.992C69.7502 17.536 69.5422 18.312 69.5422 19.32C69.5422 20.248 69.7342 20.984 70.1182 21.528C70.5182 22.072 71.1502 22.344 72.0142 22.344ZM70.2382 27C69.6782 27.208 69.2782 27.496 69.0382 27.864C68.8142 28.248 68.7022 28.656 68.7022 29.088C68.7022 29.824 68.9982 30.4 69.5902 30.816C70.1982 31.232 71.0302 31.44 72.0862 31.44C73.2222 31.44 74.1262 31.2 74.7982 30.72C75.4702 30.24 75.8062 29.568 75.8062 28.704C75.8062 28.112 75.5902 27.68 75.1582 27.408C74.7422 27.136 73.9902 27 72.9022 27H70.2382ZM90.6329 25.008C90.6329 25.456 90.6649 25.768 90.7289 25.944C90.7929 26.104 90.9289 26.216 91.1369 26.28C91.3609 26.328 91.7609 26.352 92.3369 26.352V27H87.3449V26.352C87.9049 26.352 88.2969 26.328 88.5209 26.28C88.7449 26.216 88.8889 26.096 88.9529 25.92C89.0169 25.744 89.0489 25.44 89.0489 25.008V19.152C89.0489 18.368 88.8649 17.72 88.4969 17.208C88.1449 16.68 87.5529 16.416 86.7209 16.416C86.0489 16.416 85.4809 16.592 85.0169 16.944C84.5689 17.296 84.1209 17.808 83.6729 18.48V25.008C83.6729 25.44 83.7049 25.744 83.7689 25.92C83.8329 26.096 83.9769 26.216 84.2009 26.28C84.4249 26.328 84.8169 26.352 85.3769 26.352V27H80.3849V26.352C80.9609 26.352 81.3529 26.328 81.5609 26.28C81.7849 26.216 81.9289 26.104 81.9929 25.944C82.0569 25.768 82.0889 25.456 82.0889 25.008V17.736C82.0889 17.336 82.0409 17.072 81.9449 16.944C81.8489 16.8 81.6569 16.728 81.3689 16.728H80.4809V16.08L82.9529 15.648H83.6009V17.52H83.6249C84.1049 16.816 84.6249 16.304 85.1849 15.984C85.7609 15.664 86.4889 15.504 87.3689 15.504C88.5049 15.504 89.3289 15.784 89.8409 16.344C90.3689 16.888 90.6329 17.752 90.6329 18.936V25.008ZM103.133 13.224C102.797 13.224 102.517 13.112 102.293 12.888C102.069 12.664 101.957 12.392 101.957 12.072C101.957 11.72 102.061 11.432 102.269 11.208C102.493 10.984 102.781 10.872 103.133 10.872C103.485 10.872 103.765 10.984 103.973 11.208C104.197 11.432 104.309 11.72 104.309 12.072C104.293 12.408 104.173 12.688 103.949 12.912C103.741 13.12 103.469 13.224 103.133 13.224ZM100.685 26.352C101.261 26.352 101.653 26.328 101.861 26.28C102.085 26.216 102.229 26.104 102.293 25.944C102.357 25.768 102.389 25.456 102.389 25.008V17.736C102.389 17.336 102.341 17.072 102.245 16.944C102.149 16.8 101.957 16.728 101.669 16.728H100.781V16.08L103.325 15.648H103.973V25.008C103.973 25.44 104.005 25.744 104.069 25.92C104.133 26.096 104.277 26.216 104.501 26.28C104.725 26.328 105.117 26.352 105.677 26.352V27H100.685V26.352ZM118.27 25.008C118.27 25.456 118.302 25.768 118.366 25.944C118.43 26.104 118.566 26.216 118.774 26.28C118.998 26.328 119.398 26.352 119.974 26.352V27H114.982V26.352C115.542 26.352 115.934 26.328 116.158 26.28C116.382 26.216 116.526 26.096 116.59 25.92C116.654 25.744 116.686 25.44 116.686 25.008V19.152C116.686 18.368 116.502 17.72 116.134 17.208C115.782 16.68 115.19 16.416 114.358 16.416C113.686 16.416 113.118 16.592 112.654 16.944C112.206 17.296 111.758 17.808 111.31 18.48V25.008C111.31 25.44 111.342 25.744 111.406 25.92C111.47 26.096 111.614 26.216 111.838 26.28C112.062 26.328 112.454 26.352 113.014 26.352V27H108.022V26.352C108.598 26.352 108.99 26.328 109.198 26.28C109.422 26.216 109.566 26.104 109.63 25.944C109.694 25.768 109.726 25.456 109.726 25.008V17.736C109.726 17.336 109.678 17.072 109.582 16.944C109.486 16.8 109.294 16.728 109.006 16.728H108.118V16.08L110.59 15.648H111.238V17.52H111.262C111.742 16.816 112.262 16.304 112.822 15.984C113.398 15.664 114.126 15.504 115.006 15.504C116.142 15.504 116.966 15.784 117.478 16.344C118.006 16.888 118.27 17.752 118.27 18.936V25.008Z" fill="#00596C"/>
</g>
<defs>
<filter id="filter0_d" x="41.176" y="8.87201" width="84.7984" height="33.216" filterUnits="userSpaceOnUse" color-interpolation-filters="sRGB">
<feFlood flood-opacity="0" result="BackgroundImageFix"/>
<feColorMatrix in="SourceAlpha" type="matrix" values="0 0 0 0 0 0 0 0 0 0 0 0 0 0 0 0 0 0 127 0"/>
<feOffset dy="4"/>
<feGaussianBlur stdDeviation="3"/>
<feColorMatrix type="matrix" values="0 0 0 0 0 0 0 0 0 0 0 0 0 0 0 0 0 0 0.25 0"/>
<feBlend mode="normal" in2="BackgroundImageFix" result="effect1_dropShadow"/>
<feBlend mode="normal" in="SourceGraphic" in2="effect1_dropShadow" result="shape"/>
</filter>
<linearGradient id="paint0_linear" x1="84" y1="1" x2="134" y2="70" gradientUnits="userSpaceOnUse">
<stop stop-color="#00596C"/>
<stop offset="0.274756" stop-color="#F9C746"/>
<stop offset="1" stop-color="#00596C"/>
</linearGradient>
</defs>
</svg>
